<mxfile host="65bd71144e">
    <diagram id="sdPkDWaqlXN-ObmEt0HX" name="RingerSoftwareFlow">
        <mxGraphModel dx="591" dy="587" grid="1" gridSize="10" guides="1" tooltips="1" connect="1" arrows="1" fold="1" page="1" pageScale="1" pageWidth="850" pageHeight="1100" background="#ffffff" math="0" shadow="1">
            <root>
                <mxCell id="gkxUUxY1vln-tStj2z7m-0"/>
                <mxCell id="gkxUUxY1vln-tStj2z7m-1" parent="gkxUUxY1vln-tStj2z7m-0"/>
                <mxCell id="ph47e52ZrpreI8wdSUJR-0" value="Start" style="ellipse;whiteSpace=wrap;html=1;aspect=fixed;fillColor=#000000;labelBackgroundColor=none;fontColor=#FFFFFF;" parent="gkxUUxY1vln-tStj2z7m-1" vertex="1">
                    <mxGeometry x="110" y="300" width="80" height="80" as="geometry"/>
                </mxCell>
                <mxCell id="ph47e52ZrpreI8wdSUJR-1" value="" style="endArrow=classic;html=1;exitX=1;exitY=0.5;exitDx=0;exitDy=0;entryX=0;entryY=0.5;entryDx=0;entryDy=0;strokeColor=#000000;" parent="gkxUUxY1vln-tStj2z7m-1" source="ph47e52ZrpreI8wdSUJR-0" target="ph47e52ZrpreI8wdSUJR-2" edge="1">
                    <mxGeometry width="50" height="50" relative="1" as="geometry">
                        <mxPoint x="320" y="390" as="sourcePoint"/>
                        <mxPoint x="270" y="340" as="targetPoint"/>
                    </mxGeometry>
                </mxCell>
                <mxCell id="ph47e52ZrpreI8wdSUJR-2" value="Connection to Notifier WiFi" style="rounded=0;whiteSpace=wrap;html=1;fillColor=#000000;fontColor=#FFFFFF;" parent="gkxUUxY1vln-tStj2z7m-1" vertex="1">
                    <mxGeometry x="260" y="310" width="120" height="60" as="geometry"/>
                </mxCell>
                <mxCell id="ph47e52ZrpreI8wdSUJR-3" value="Sleep" style="ellipse;whiteSpace=wrap;html=1;aspect=fixed;fillColor=#000000;fontColor=#FFFFFF;" parent="gkxUUxY1vln-tStj2z7m-1" vertex="1">
                    <mxGeometry x="280" y="420" width="80" height="80" as="geometry"/>
                </mxCell>
                <mxCell id="ph47e52ZrpreI8wdSUJR-4" value="" style="endArrow=classic;html=1;exitX=0.75;exitY=1;exitDx=0;exitDy=0;entryX=1;entryY=0;entryDx=0;entryDy=0;strokeColor=#000000;" parent="gkxUUxY1vln-tStj2z7m-1" source="ph47e52ZrpreI8wdSUJR-2" target="ph47e52ZrpreI8wdSUJR-3" edge="1">
                    <mxGeometry width="50" height="50" relative="1" as="geometry">
                        <mxPoint x="200" y="350" as="sourcePoint"/>
                        <mxPoint x="270" y="350" as="targetPoint"/>
                    </mxGeometry>
                </mxCell>
                <mxCell id="ph47e52ZrpreI8wdSUJR-5" value="&lt;font color=&quot;#000000&quot;&gt;Timeout&lt;/font&gt;" style="text;html=1;align=center;verticalAlign=middle;resizable=0;points=[];autosize=1;strokeColor=none;fillColor=none;rotation=90;" parent="gkxUUxY1vln-tStj2z7m-1" vertex="1">
                    <mxGeometry x="330" y="390" width="60" height="20" as="geometry"/>
                </mxCell>
                <mxCell id="ph47e52ZrpreI8wdSUJR-8" value="" style="endArrow=classic;html=1;fontColor=#000000;strokeColor=#000000;exitX=0.75;exitY=0;exitDx=0;exitDy=0;entryX=0.25;entryY=0;entryDx=0;entryDy=0;" parent="gkxUUxY1vln-tStj2z7m-1" source="ph47e52ZrpreI8wdSUJR-2" target="ph47e52ZrpreI8wdSUJR-2" edge="1">
                    <mxGeometry width="50" height="50" relative="1" as="geometry">
                        <mxPoint x="390" y="270" as="sourcePoint"/>
                        <mxPoint x="350" y="240" as="targetPoint"/>
                        <Array as="points">
                            <mxPoint x="350" y="280"/>
                            <mxPoint x="290" y="280"/>
                        </Array>
                    </mxGeometry>
                </mxCell>
                <mxCell id="ph47e52ZrpreI8wdSUJR-9" value="Retry" style="text;html=1;strokeColor=none;fillColor=none;align=center;verticalAlign=middle;whiteSpace=wrap;rounded=0;fontColor=#000000;" parent="gkxUUxY1vln-tStj2z7m-1" vertex="1">
                    <mxGeometry x="290" y="260" width="60" height="30" as="geometry"/>
                </mxCell>
                <mxCell id="ph47e52ZrpreI8wdSUJR-11" value="" style="endArrow=classic;html=1;fontColor=#000000;strokeColor=#000000;exitX=1;exitY=0.5;exitDx=0;exitDy=0;" parent="gkxUUxY1vln-tStj2z7m-1" source="ph47e52ZrpreI8wdSUJR-2" edge="1">
                    <mxGeometry width="50" height="50" relative="1" as="geometry">
                        <mxPoint x="490" y="380" as="sourcePoint"/>
                        <mxPoint x="450" y="340" as="targetPoint"/>
                    </mxGeometry>
                </mxCell>
                <mxCell id="ph47e52ZrpreI8wdSUJR-12" value="Success" style="text;html=1;align=center;verticalAlign=middle;resizable=0;points=[];autosize=1;strokeColor=none;fillColor=none;fontColor=#000000;" parent="gkxUUxY1vln-tStj2z7m-1" vertex="1">
                    <mxGeometry x="380" y="320" width="60" height="20" as="geometry"/>
                </mxCell>
                <mxCell id="ph47e52ZrpreI8wdSUJR-22" value="" style="edgeStyle=none;html=1;fontColor=#FFFFFF;strokeColor=#000000;" parent="gkxUUxY1vln-tStj2z7m-1" source="ph47e52ZrpreI8wdSUJR-13" target="ph47e52ZrpreI8wdSUJR-21" edge="1">
                    <mxGeometry relative="1" as="geometry"/>
                </mxCell>
                <mxCell id="ph47e52ZrpreI8wdSUJR-13" value="&lt;font color=&quot;#ffffff&quot;&gt;Attach interrupt to ring button&lt;/font&gt;" style="rounded=0;whiteSpace=wrap;html=1;fontColor=#000000;fillColor=#000000;" parent="gkxUUxY1vln-tStj2z7m-1" vertex="1">
                    <mxGeometry x="450" y="310" width="120" height="60" as="geometry"/>
                </mxCell>
                <mxCell id="ph47e52ZrpreI8wdSUJR-18" value="" style="endArrow=classic;html=1;fontColor=#FFFFFF;strokeColor=#000000;exitX=0;exitY=0;exitDx=0;exitDy=0;" parent="gkxUUxY1vln-tStj2z7m-1" source="ph47e52ZrpreI8wdSUJR-3" edge="1">
                    <mxGeometry width="50" height="50" relative="1" as="geometry">
                        <mxPoint x="240" y="460" as="sourcePoint"/>
                        <mxPoint x="290" y="370" as="targetPoint"/>
                    </mxGeometry>
                </mxCell>
                <mxCell id="ph47e52ZrpreI8wdSUJR-24" style="edgeStyle=none;html=1;entryX=1;entryY=0.5;entryDx=0;entryDy=0;fontColor=#FFFFFF;strokeColor=#000000;" parent="gkxUUxY1vln-tStj2z7m-1" source="ph47e52ZrpreI8wdSUJR-21" target="ph47e52ZrpreI8wdSUJR-23" edge="1">
                    <mxGeometry relative="1" as="geometry">
                        <Array as="points">
                            <mxPoint x="650" y="240"/>
                        </Array>
                    </mxGeometry>
                </mxCell>
                <mxCell id="ph47e52ZrpreI8wdSUJR-21" value="Wait" style="ellipse;whiteSpace=wrap;html=1;aspect=fixed;fontColor=#FFFFFF;fillColor=#000000;" parent="gkxUUxY1vln-tStj2z7m-1" vertex="1">
                    <mxGeometry x="610" y="300" width="80" height="80" as="geometry"/>
                </mxCell>
                <mxCell id="ph47e52ZrpreI8wdSUJR-27" style="edgeStyle=none;html=1;exitX=1;exitY=0.75;exitDx=0;exitDy=0;entryX=0;entryY=0;entryDx=0;entryDy=0;fontColor=#000000;strokeColor=#000000;" parent="gkxUUxY1vln-tStj2z7m-1" source="ph47e52ZrpreI8wdSUJR-23" target="ph47e52ZrpreI8wdSUJR-21" edge="1">
                    <mxGeometry relative="1" as="geometry"/>
                </mxCell>
                <mxCell id="ph47e52ZrpreI8wdSUJR-23" value="Send message to Notifier" style="rounded=0;whiteSpace=wrap;html=1;fontColor=#FFFFFF;fillColor=#000000;" parent="gkxUUxY1vln-tStj2z7m-1" vertex="1">
                    <mxGeometry x="450" y="210" width="120" height="60" as="geometry"/>
                </mxCell>
                <mxCell id="ph47e52ZrpreI8wdSUJR-25" value="Text" style="text;html=1;strokeColor=none;fillColor=none;align=center;verticalAlign=middle;whiteSpace=wrap;rounded=0;fontColor=#FFFFFF;" parent="gkxUUxY1vln-tStj2z7m-1" vertex="1">
                    <mxGeometry x="480" y="260" width="60" height="30" as="geometry"/>
                </mxCell>
                <mxCell id="ph47e52ZrpreI8wdSUJR-26" value="&lt;font color=&quot;#000000&quot;&gt;Ring btn pressed&lt;/font&gt;" style="text;html=1;align=center;verticalAlign=middle;resizable=0;points=[];autosize=1;strokeColor=none;fillColor=none;fontColor=#FFFFFF;" parent="gkxUUxY1vln-tStj2z7m-1" vertex="1">
                    <mxGeometry x="570" y="220" width="110" height="20" as="geometry"/>
                </mxCell>
                <mxCell id="-BhHc7-53CAUlyVwf8zm-0" style="edgeStyle=none;html=1;exitX=0.75;exitY=0;exitDx=0;exitDy=0;entryX=0.25;entryY=0;entryDx=0;entryDy=0;fontColor=#000000;strokeColor=#000000;" parent="gkxUUxY1vln-tStj2z7m-1" source="ph47e52ZrpreI8wdSUJR-23" target="ph47e52ZrpreI8wdSUJR-23" edge="1">
                    <mxGeometry relative="1" as="geometry">
                        <Array as="points">
                            <mxPoint x="540" y="180"/>
                            <mxPoint x="480" y="180"/>
                        </Array>
                    </mxGeometry>
                </mxCell>
                <mxCell id="-BhHc7-53CAUlyVwf8zm-1" value="Retry" style="text;html=1;strokeColor=none;fillColor=none;align=center;verticalAlign=middle;whiteSpace=wrap;rounded=0;fontColor=#000000;" parent="gkxUUxY1vln-tStj2z7m-1" vertex="1">
                    <mxGeometry x="480" y="160" width="60" height="30" as="geometry"/>
                </mxCell>
            </root>
        </mxGraphModel>
    </diagram>
    <diagram id="eKItt3fhPgxs0ZYlgYv0" name="RingerSoftwareArch">
        <mxGraphModel dx="239" dy="238" grid="1" gridSize="10" guides="1" tooltips="1" connect="1" arrows="1" fold="1" page="1" pageScale="1" pageWidth="850" pageHeight="1100" background="#ffffff" math="0" shadow="1">
            <root>
                <mxCell id="0iDM6FrSltFbo_BFfYHy-0"/>
                <mxCell id="0iDM6FrSltFbo_BFfYHy-1" parent="0iDM6FrSltFbo_BFfYHy-0"/>
                <mxCell id="Y-I804rBl3xx_FinEcfg-0" value="Hardware" style="rounded=1;whiteSpace=wrap;html=1;" parent="0iDM6FrSltFbo_BFfYHy-1" vertex="1">
                    <mxGeometry x="230" y="500" width="250" height="30" as="geometry"/>
                </mxCell>
                <mxCell id="Y-I804rBl3xx_FinEcfg-1" value="ESP8266EX SDK" style="rounded=1;whiteSpace=wrap;html=1;" parent="0iDM6FrSltFbo_BFfYHy-1" vertex="1">
                    <mxGeometry x="320" y="460" width="160" height="30" as="geometry"/>
                </mxCell>
                <mxCell id="Y-I804rBl3xx_FinEcfg-2" value="FreeRTOS" style="rounded=1;whiteSpace=wrap;html=1;fillColor=#666666;" parent="0iDM6FrSltFbo_BFfYHy-1" vertex="1">
                    <mxGeometry x="230" y="460" width="80" height="30" as="geometry"/>
                </mxCell>
                <mxCell id="Y-I804rBl3xx_FinEcfg-3" value="Arduino" style="rounded=1;whiteSpace=wrap;html=1;" parent="0iDM6FrSltFbo_BFfYHy-1" vertex="1">
                    <mxGeometry x="230" y="420" width="250" height="30" as="geometry"/>
                </mxCell>
                <mxCell id="Y-I804rBl3xx_FinEcfg-4" value="Application" style="rounded=1;whiteSpace=wrap;html=1;" parent="0iDM6FrSltFbo_BFfYHy-1" vertex="1">
                    <mxGeometry x="230" y="380" width="250" height="30" as="geometry"/>
                </mxCell>
            </root>
        </mxGraphModel>
    </diagram>
    <diagram name="HighLevelArch" id="90a13364-a465-7bf4-72fc-28e22215d7a0">
        <mxGraphModel dx="502" dy="499" grid="1" gridSize="10" guides="1" tooltips="1" connect="1" arrows="1" fold="1" page="1" pageScale="1.5" pageWidth="1169" pageHeight="826" background="#ffffff" math="0" shadow="0">
            <root>
                <mxCell id="0" style=";html=1;"/>
                <mxCell id="1" style=";html=1;" parent="0"/>
                <mxCell id="3a17f1ce550125da-8" value="" style="whiteSpace=wrap;html=1;shadow=1;fontSize=18;fillColor=#008a00;strokeColor=#005700;fontColor=#ffffff;" parent="1" vertex="1">
                    <mxGeometry x="400" y="454" width="210" height="256" as="geometry"/>
                </mxCell>
                <mxCell id="9m7NxkryejvWXKkI9qjT-7" style="edgeStyle=orthogonalEdgeStyle;rounded=0;orthogonalLoop=1;jettySize=auto;html=1;exitX=0.5;exitY=1;exitDx=0;exitDy=0;entryX=0.663;entryY=0.013;entryDx=0;entryDy=0;entryPerimeter=0;" parent="1" source="3a17f1ce550125da-9" target="9m7NxkryejvWXKkI9qjT-3" edge="1">
                    <mxGeometry relative="1" as="geometry"/>
                </mxCell>
                <mxCell id="3a17f1ce550125da-9" value="Battery PSU" style="whiteSpace=wrap;html=1;shadow=1;fontSize=18;fillColor=#1ba1e2;strokeColor=#006EAF;fontColor=#ffffff;" parent="1" vertex="1">
                    <mxGeometry x="470" y="470" width="120" height="60" as="geometry"/>
                </mxCell>
                <mxCell id="9m7NxkryejvWXKkI9qjT-2" value="Ringer (Client)" style="text;html=1;strokeColor=none;fillColor=none;align=center;verticalAlign=middle;whiteSpace=wrap;rounded=0;" parent="1" vertex="1">
                    <mxGeometry x="475" y="424" width="60" height="30" as="geometry"/>
                </mxCell>
                <mxCell id="9m7NxkryejvWXKkI9qjT-3" value="ESP8266" style="whiteSpace=wrap;html=1;shadow=1;fontSize=18;fillColor=#1ba1e2;strokeColor=#006EAF;fontColor=#ffffff;" parent="1" vertex="1">
                    <mxGeometry x="415" y="554" width="175" height="80" as="geometry"/>
                </mxCell>
                <mxCell id="9m7NxkryejvWXKkI9qjT-8" style="edgeStyle=orthogonalEdgeStyle;rounded=0;orthogonalLoop=1;jettySize=auto;html=1;exitX=0.5;exitY=0;exitDx=0;exitDy=0;entryX=0.25;entryY=1;entryDx=0;entryDy=0;" parent="1" source="9m7NxkryejvWXKkI9qjT-4" target="9m7NxkryejvWXKkI9qjT-3" edge="1">
                    <mxGeometry relative="1" as="geometry"/>
                </mxCell>
                <mxCell id="9m7NxkryejvWXKkI9qjT-4" value="External Antena" style="whiteSpace=wrap;html=1;shadow=1;fontSize=18;fillColor=#1ba1e2;strokeColor=#006EAF;fontColor=#ffffff;" parent="1" vertex="1">
                    <mxGeometry x="415" y="654" width="80" height="40" as="geometry"/>
                </mxCell>
                <mxCell id="9m7NxkryejvWXKkI9qjT-9" style="edgeStyle=orthogonalEdgeStyle;rounded=0;orthogonalLoop=1;jettySize=auto;html=1;exitX=0.5;exitY=0;exitDx=0;exitDy=0;entryX=0.817;entryY=0.95;entryDx=0;entryDy=0;entryPerimeter=0;" parent="1" source="9m7NxkryejvWXKkI9qjT-5" target="9m7NxkryejvWXKkI9qjT-3" edge="1">
                    <mxGeometry relative="1" as="geometry"/>
                </mxCell>
                <mxCell id="9m7NxkryejvWXKkI9qjT-5" value="Ring Button" style="whiteSpace=wrap;html=1;shadow=1;fontSize=18;fillColor=#1ba1e2;strokeColor=#006EAF;fontColor=#ffffff;" parent="1" vertex="1">
                    <mxGeometry x="515" y="652" width="75" height="44" as="geometry"/>
                </mxCell>
                <mxCell id="9m7NxkryejvWXKkI9qjT-10" value="" style="whiteSpace=wrap;html=1;shadow=1;fontSize=18;fillColor=#008a00;strokeColor=#005700;fontColor=#ffffff;" parent="1" vertex="1">
                    <mxGeometry x="790" y="454" width="210" height="256" as="geometry"/>
                </mxCell>
                <mxCell id="9m7NxkryejvWXKkI9qjT-11" style="edgeStyle=orthogonalEdgeStyle;rounded=0;orthogonalLoop=1;jettySize=auto;html=1;exitX=0.5;exitY=1;exitDx=0;exitDy=0;entryX=0.663;entryY=0.013;entryDx=0;entryDy=0;entryPerimeter=0;" parent="1" source="9m7NxkryejvWXKkI9qjT-12" target="9m7NxkryejvWXKkI9qjT-14" edge="1">
                    <mxGeometry relative="1" as="geometry"/>
                </mxCell>
                <mxCell id="9m7NxkryejvWXKkI9qjT-12" value="Battery PSU" style="whiteSpace=wrap;html=1;shadow=1;fontSize=18;fillColor=#1ba1e2;strokeColor=#006EAF;fontColor=#ffffff;" parent="1" vertex="1">
                    <mxGeometry x="860" y="470" width="120" height="60" as="geometry"/>
                </mxCell>
                <mxCell id="9m7NxkryejvWXKkI9qjT-13" value="Notifier (Server)" style="text;html=1;strokeColor=none;fillColor=none;align=center;verticalAlign=middle;whiteSpace=wrap;rounded=0;" parent="1" vertex="1">
                    <mxGeometry x="865" y="424" width="60" height="30" as="geometry"/>
                </mxCell>
                <mxCell id="9m7NxkryejvWXKkI9qjT-14" value="ESP32" style="whiteSpace=wrap;html=1;shadow=1;fontSize=18;fillColor=#1ba1e2;strokeColor=#006EAF;fontColor=#ffffff;" parent="1" vertex="1">
                    <mxGeometry x="805" y="554" width="175" height="80" as="geometry"/>
                </mxCell>
                <mxCell id="9m7NxkryejvWXKkI9qjT-15" style="edgeStyle=orthogonalEdgeStyle;rounded=0;orthogonalLoop=1;jettySize=auto;html=1;exitX=0.5;exitY=0;exitDx=0;exitDy=0;entryX=0.25;entryY=1;entryDx=0;entryDy=0;" parent="1" source="9m7NxkryejvWXKkI9qjT-16" target="9m7NxkryejvWXKkI9qjT-14" edge="1">
                    <mxGeometry relative="1" as="geometry"/>
                </mxCell>
                <mxCell id="9m7NxkryejvWXKkI9qjT-16" value="Buzzer" style="whiteSpace=wrap;html=1;shadow=1;fontSize=18;fillColor=#1ba1e2;strokeColor=#006EAF;fontColor=#ffffff;" parent="1" vertex="1">
                    <mxGeometry x="805" y="654" width="80" height="40" as="geometry"/>
                </mxCell>
                <mxCell id="9m7NxkryejvWXKkI9qjT-20" value="WiFi" style="text;html=1;strokeColor=none;fillColor=none;align=center;verticalAlign=middle;whiteSpace=wrap;rounded=0;fontColor=#3333FF;" parent="1" vertex="1">
                    <mxGeometry x="670" y="550" width="60" height="30" as="geometry"/>
                </mxCell>
                <mxCell id="9m7NxkryejvWXKkI9qjT-21" value="Many to One" style="text;html=1;strokeColor=none;fillColor=none;align=center;verticalAlign=middle;whiteSpace=wrap;rounded=0;fontColor=#3333FF;" parent="1" vertex="1">
                    <mxGeometry x="660" y="590" width="80" height="30" as="geometry"/>
                </mxCell>
                <mxCell id="9m7NxkryejvWXKkI9qjT-24" value="" style="whiteSpace=wrap;html=1;shadow=1;fontSize=18;fillColor=#1ba1e2;strokeColor=#006EAF;fontColor=#ffffff;" parent="1" vertex="1">
                    <mxGeometry x="1130" y="527" width="110" height="110" as="geometry"/>
                </mxCell>
                <mxCell id="9m7NxkryejvWXKkI9qjT-27" value="Phone APP" style="text;html=1;strokeColor=none;fillColor=none;align=center;verticalAlign=middle;whiteSpace=wrap;rounded=0;" parent="1" vertex="1">
                    <mxGeometry x="1155" y="490" width="60" height="30" as="geometry"/>
                </mxCell>
                <mxCell id="9m7NxkryejvWXKkI9qjT-31" value="" style="endArrow=none;dashed=1;html=1;dashPattern=1 3;strokeWidth=2;rounded=0;exitX=1;exitY=0.5;exitDx=0;exitDy=0;entryX=0;entryY=0.5;entryDx=0;entryDy=0;fillColor=#0050ef;strokeColor=#001DBC;" parent="1" source="3a17f1ce550125da-8" target="9m7NxkryejvWXKkI9qjT-10" edge="1">
                    <mxGeometry width="50" height="50" relative="1" as="geometry">
                        <mxPoint x="700" y="750" as="sourcePoint"/>
                        <mxPoint x="750" y="700" as="targetPoint"/>
                    </mxGeometry>
                </mxCell>
                <mxCell id="9m7NxkryejvWXKkI9qjT-32" value="" style="endArrow=none;dashed=1;html=1;dashPattern=1 3;strokeWidth=2;rounded=0;entryX=0;entryY=0.5;entryDx=0;entryDy=0;exitX=1;exitY=0.5;exitDx=0;exitDy=0;fontColor=#3333FF;fillColor=#0050ef;strokeColor=#001DBC;" parent="1" source="9m7NxkryejvWXKkI9qjT-10" target="9m7NxkryejvWXKkI9qjT-24" edge="1">
                    <mxGeometry width="50" height="50" relative="1" as="geometry">
                        <mxPoint x="1000" y="580" as="sourcePoint"/>
                        <mxPoint x="800" y="592" as="targetPoint"/>
                    </mxGeometry>
                </mxCell>
                <mxCell id="9m7NxkryejvWXKkI9qjT-33" value="BLE" style="text;html=1;strokeColor=none;fillColor=none;align=center;verticalAlign=middle;whiteSpace=wrap;rounded=0;fontColor=#3333FF;" parent="1" vertex="1">
                    <mxGeometry x="1040" y="550" width="60" height="30" as="geometry"/>
                </mxCell>
                <mxCell id="9m7NxkryejvWXKkI9qjT-34" value="Android service that notifies user on phone" style="text;html=1;strokeColor=none;fillColor=none;align=center;verticalAlign=middle;whiteSpace=wrap;rounded=0;" parent="1" vertex="1">
                    <mxGeometry x="1135" y="567" width="100" height="30" as="geometry"/>
                </mxCell>
                <mxCell id="9m7NxkryejvWXKkI9qjT-39" style="edgeStyle=orthogonalEdgeStyle;rounded=0;orthogonalLoop=1;jettySize=auto;html=1;exitX=0.5;exitY=0;exitDx=0;exitDy=0;entryX=0.75;entryY=1;entryDx=0;entryDy=0;" parent="1" source="9m7NxkryejvWXKkI9qjT-36" target="9m7NxkryejvWXKkI9qjT-14" edge="1">
                    <mxGeometry relative="1" as="geometry"/>
                </mxCell>
                <mxCell id="9m7NxkryejvWXKkI9qjT-36" value="External Antena" style="whiteSpace=wrap;html=1;shadow=1;fontSize=18;fillColor=#1ba1e2;strokeColor=#006EAF;fontColor=#ffffff;" parent="1" vertex="1">
                    <mxGeometry x="900" y="656" width="80" height="40" as="geometry"/>
                </mxCell>
            </root>
        </mxGraphModel>
    </diagram>
</mxfile>